<?xml version="1.0" standalone="no"?><!DOCTYPE svg PUBLIC "-//W3C//DTD SVG 1.1//EN" "http://www.w3.org/Graphics/SVG/1.1/DTD/svg11.dtd"><svg t="1580566463771" class="icon" viewBox="0 0 1024 1024" version="1.1" xmlns="http://www.w3.org/2000/svg" p-id="2172" xmlns:xlink="http://www.w3.org/1999/xlink" width="50" height="50"><defs><style type="text/css"></style></defs><path d="M729.6 917.333333h-554.666667c-12.8 0-25.6-12.8-25.6-25.6s12.8-25.6 25.6-25.6h554.666667c12.8 0 25.6 12.8 25.6 25.6s-12.8 25.6-25.6 25.6zM789.333333 614.4H725.333333v-213.333333h64c59.733333 0 106.666667 46.933333 106.666667 106.666666s-46.933333 106.666667-106.666667 106.666667z m-12.8-51.2h8.533334c29.866667 0 55.466667-25.6 55.466666-55.466667 0-29.866667-25.6-55.466667-55.466666-55.466666h-8.533334v110.933333z" fill="#f4ea2a" p-id="2173"></path><path d="M469.333333 840.533333h-29.866666c-170.666667 0-307.2-115.2-307.2-256V345.6c0-12.8 12.8-25.6 25.6-25.6h593.066666c8.533333 0 12.8 4.266667 17.066667 8.533333 4.266667 4.266667 8.533333 12.8 8.533333 17.066667v238.933333c-4.266667 145.066667-140.8 256-307.2 256zM179.2 375.466667v209.066666c0 110.933333 115.2 204.8 256 204.8h34.133333c136.533333 0 251.733333-89.6 256-200.533333v-55.466667V426.666667 375.466667H179.2z" fill="#f4ea2a" p-id="2174"></path><path d="M661.333333 469.333333v-34.133333c0-12.8-8.533333-21.333333-21.333333-21.333333H260.266667c-12.8 0-21.333333 8.533333-21.333334 21.333333v145.066667c0 89.6 89.6 162.133333 200.533334 162.133333h21.333333c110.933333 0 196.266667-72.533333 200.533333-162.133333 4.266667-17.066667 0-25.6 0-110.933334z" fill="#f4ea2a" p-id="2175"></path><path d="M332.8 273.066667h-8.533333c-12.8 0-21.333333-8.533333-21.333334-21.333334V149.333333c0-8.533333 8.533333-21.333333 21.333334-21.333333h8.533333c12.8 0 21.333333 8.533333 21.333333 21.333333v98.133334c4.266667 17.066667-8.533333 25.6-21.333333 25.6zM456.533333 273.066667h-8.533333c-12.8 0-21.333333-8.533333-21.333333-21.333334V149.333333c0-8.533333 8.533333-21.333333 21.333333-21.333333h8.533333c12.8 0 21.333333 8.533333 21.333334 21.333333v98.133334c4.266667 17.066667-8.533333 25.6-21.333334 25.6zM580.266667 273.066667h-8.533334c-12.8 0-21.333333-8.533333-21.333333-21.333334V149.333333c0-12.8 8.533333-21.333333 21.333333-21.333333h8.533334c12.8 0 21.333333 8.533333 21.333333 21.333333v98.133334c0 17.066667-8.533333 25.6-21.333333 25.6z" fill="#f4ea2a" p-id="2176"></path></svg>