<?xml version="1.0" standalone="no"?><!DOCTYPE svg PUBLIC "-//W3C//DTD SVG 1.1//EN" "http://www.w3.org/Graphics/SVG/1.1/DTD/svg11.dtd"><svg t="1580566575833" class="icon" viewBox="0 0 1024 1024" version="1.1" xmlns="http://www.w3.org/2000/svg" p-id="5360" xmlns:xlink="http://www.w3.org/1999/xlink" width="50" height="50"><defs><style type="text/css"></style></defs><path d="M616.688685 512.476723a99.277467 99.277467 0 1 1-99.158286-99.158287A99.158287 99.158287 0 0 1 616.688685 512.476723z" fill="#1296db" p-id="5361"></path><path d="M810.953117 848.566108c-111.314711 0-267.20298-59.590317-417.132216-159.344507-111.314711-74.249534-204.871508-161.370577-263.389199-245.154562C68.219412 354.919926 52.487568 278.286778 85.977326 228.111732c22.882682-34.443203 66.860335-52.67784 127.046555-52.67784 111.433892 0 267.32216 59.590317 417.132216 159.344507 111.433892 74.249534 205.10987 161.251397 263.62756 245.273743 62.09311 89.027933 77.824953 165.66108 44.454377 215.836126-23.121043 34.443203-67.098696 52.67784-127.284917 52.67784zM213.023881 215.240223c-32.178771 0-74.726257 5.959032-93.914339 34.919926-23.836127 35.75419-7.389199 97.489758 43.977654 171.024209C218.863732 501.154562 308.606749 583.985102 415.988499 656.089385 557.33673 750.837989 708.696134 808.759777 810.953117 808.759777c32.297952 0 74.726257-6.078212 94.03352-34.919926 23.836127-35.75419 7.270019-97.489758-43.977654-171.143389-55.776536-79.731844-145.638734-163.158287-253.020484-234.785847C466.640268 274.115456 315.280864 215.240223 213.023881 215.240223z" fill="#1296db" p-id="5362"></path><path d="M212.547158 840.819367c-64.357542 0-110.718808-19.426443-133.839851-56.014898-32.05959-51.128492-14.301676-127.284916 50.055866-214.525139 60.782123-82.234637 156.484171-166.852886 269.824954-238.361267C546.372112 238.361266 700.711032 183.061453 811.42984 183.061453c64.476723 0 110.837989 19.426443 133.839851 56.134078 32.178771 51.009311 14.301676 127.284916-50.055866 214.525139-60.662942 82.353818-156.484171 166.852886-269.705773 238.361267-147.903166 93.199255-302.242086 148.73743-412.960894 148.73743z m598.882682-617.832402c-102.018622 0-252.067039 54.58473-391.627561 143.016759-109.16946 68.171322-201.176909 149.214153-258.860335 227.75419-53.392924 72.223464-71.50838 134.197393-48.506518 169.832403 19.426443 30.986965 65.191806 37.422719 100.111732 37.422718 102.018622 0 252.067039-54.58473 391.627561-143.016759 109.288641-68.767225 201.176909-149.810056 258.979516-228.230913 53.273743-72.223464 71.50838-134.197393 48.387337-169.832402-19.426443-30.510242-65.191806-36.945996-100.111732-36.945996z" fill="#1296db" p-id="5363"></path><path d="M512.048089 1024c-119.180633 0-212.975791-224.893855-212.975791-512.476723S392.629095 0 512.048089 0s212.856611 224.893855 212.856611 512.476723-93.556797 511.523277-212.856611 511.523277z m0-984.193669c-83.426443 0-173.16946 189.735568-173.16946 472.193669s89.504655 472.193669 173.16946 472.193669S685.098369 794.458101 685.098369 512.476723 595.593713 39.806331 512.048089 39.806331z" fill="#1296db" p-id="5364"></path></svg>