<?xml version="1.0" standalone="no"?><!DOCTYPE svg PUBLIC "-//W3C//DTD SVG 1.1//EN" "http://www.w3.org/Graphics/SVG/1.1/DTD/svg11.dtd"><svg t="1580380910230" class="icon" viewBox="0 0 1024 1024" version="1.1" xmlns="http://www.w3.org/2000/svg" p-id="3759" xmlns:xlink="http://www.w3.org/1999/xlink" width="50" height="50"><defs><style type="text/css"></style></defs><path d="M849.454545 46.545455a34.909091 34.909091 0 1 1 0 69.818181h-651.636363a34.909091 34.909091 0 1 1 0-69.818181h651.636363zM563.479273 157.765818l301.498182 254.882909c16.709818 16.709818 21.666909 41.611636 12.613818 63.418182A57.972364 57.972364 0 0 1 823.831273 512H698.181818v408.715636A56.808727 56.808727 0 0 1 641.442909 977.454545H405.829818A56.808727 56.808727 0 0 1 349.090909 920.715636V512H223.441455a57.972364 57.972364 0 0 1-53.76-35.909818 58.042182 58.042182 0 0 1 12.613818-63.418182l2.141091-1.978182L483.793455 157.765818a58.298182 58.298182 0 0 1 79.685818 0zM628.363636 442.181818h163.537455L523.636364 215.505455 255.371636 442.181818H418.909091v465.454546h209.454545V442.181818z" fill="#797979" p-id="3760"></path></svg>