<?xml version="1.0" standalone="no"?><!DOCTYPE svg PUBLIC "-//W3C//DTD SVG 1.1//EN" "http://www.w3.org/Graphics/SVG/1.1/DTD/svg11.dtd"><svg t="1580380787010" class="icon" viewBox="0 0 1024 1024" version="1.1" xmlns="http://www.w3.org/2000/svg" p-id="2118" width="50" height="50" xmlns:xlink="http://www.w3.org/1999/xlink"><defs><style type="text/css"></style></defs><path d="M308.116457 728.502857m-295.497143 0a295.497143 295.497143 0 1 0 590.994286 0 295.497143 295.497143 0 1 0-590.994286 0Z" fill="#90C981" p-id="2119"></path><path d="M962.745028 301.531429m-48.457143 0a48.457143 48.457143 0 1 0 96.914286 0 48.457143 48.457143 0 1 0-96.914286 0Z" fill="#90C981" p-id="2120"></path><path d="M308.116457 28.525714m-28.525714 0a28.525714 28.525714 0 1 0 57.051428 0 28.525714 28.525714 0 1 0-57.051428 0Z" fill="#90C981" p-id="2121"></path><path d="M779.156457 986.331429h-131.84a27.977143 27.977143 0 0 1-27.977143-27.794286v-283.428572a57.417143 57.417143 0 0 0-57.234286-57.417142h-88.502857a57.417143 57.417143 0 0 0-57.234286 57.417142v283.428572a27.977143 27.977143 0 0 1-27.977142 27.794286h-131.84a113.188571 113.188571 0 0 1-113.188572-113.188572V555.337143H96.185028a71.497143 71.497143 0 0 1-50.102857-122.697143L467.750743 20.114286a72.045714 72.045714 0 0 1 100.022857 0l123.794285 121.051428a27.995429 27.995429 0 0 1-39.131428 40.045715l-123.611429-121.051429a15.725714 15.725714 0 0 0-22.125714 0L85.030743 472.502857a15.908571 15.908571 0 0 0 11.154285 27.062857h75.154286a27.794286 27.794286 0 0 1 27.794286 27.794286v345.782857a57.6 57.6 0 0 0 57.417143 57.417143h103.862857V675.108571a113.371429 113.371429 0 0 1 113.188571-113.188571h88.502857a113.371429 113.371429 0 0 1 113.188572 113.188571v255.451429h103.862857a57.6 57.6 0 0 0 57.417143-57.417143V527.36a27.794286 27.794286 0 0 1 27.794285-27.794286h74.971429a15.908571 15.908571 0 0 0 10.422857-27.794285l-1.645714-1.462858-206.811429-202.24a28.342857 28.342857 0 0 1-8.411428-19.931428v-148.114286h-38.582857a27.977143 27.977143 0 1 1 0-55.771428h66.56a27.977143 27.977143 0 0 1 27.977142 27.794285v164.205715l197.668572 193.645714a70.948571 70.948571 0 0 1 24.685714 53.942857 71.68 71.68 0 0 1-71.68 71.497143h-47.177143v317.805714a113.188571 113.188571 0 0 1-113.188571 113.188572z" fill="#535453" p-id="2122"></path></svg>