<svg viewBox="0 0 1024 1024" xmlns="http://www.w3.org/2000/svg" xmlns:xlink="http://www.w3.org/1999/xlink">
    <path d="M942.15168 133.12 81.84832 133.12C36.74112 133.12 0 169.75872 0 214.94784l0 604.35456c0 45.1584 36.64896 81.8176 81.84832 81.8176l860.30336 0c45.1072 0 81.84832-36.63872 81.84832-81.8176l0-604.35456C1024 169.7792 987.36128 133.12 942.15168 133.12zM480 186.44992c29.45024 0 53.34016 23.87968 53.34016 53.32992s-23.88992 53.32992-53.34016 53.32992-53.32992-23.87968-53.32992-53.32992S450.54976 186.44992 480 186.44992zM320 186.44992c29.45024 0 53.32992 23.87968 53.32992 53.32992s-23.87968 53.32992-53.32992 53.32992-53.32992-23.87968-53.32992-53.32992S290.54976 186.44992 320 186.44992zM160 186.44992c29.45024 0 53.32992 23.87968 53.32992 53.32992s-23.87968 53.32992-53.32992 53.32992-53.32992-23.87968-53.32992-53.32992S130.54976 186.44992 160 186.44992zM960 796.1088c0 22.65088-18.29888 41.0112-40.98048 41.0112L104.97024 837.12c-22.6304 0-40.97024-18.29888-40.97024-41.0112l0-449.65888 896 0L960 796.1088z"/>
    <path d="M342.60992 687.64672c7.82336 0 14.29504-2.22208 19.42528-6.63552 5.12-4.43392 7.68-10.22976 7.68-17.39776 0-6.79936-2.56-12.48256-7.68-17.0496-5.13024-4.5568-11.4176-6.85056-18.87232-6.85056-7.36256 0-13.69088 2.24256-19.00544 6.7072-5.30432 4.48512-7.95648 10.20928-7.95648 17.19296 0 6.89152 2.58048 12.62592 7.75168 17.19296S335.33952 687.64672 342.60992 687.64672z"/>
    <path d="M213.01248 687.64672c25.344 0 45.8752-3.87072 61.62432-11.60192l0 0 0-42.3424c-15.83104 9.3184-33.40288 13.96736-52.6848 13.96736-20.49024 0-36.75136-6.47168-48.77312-19.41504-12.01152-12.94336-18.0224-30.04416-18.0224-51.28192 0-21.80096 6.32832-39.46496 19.00544-52.96128 12.66688-13.5168 29.57312-20.26496 50.72896-20.26496 18.5344 0 35.11296 4.28032 49.74592 12.8512l0-44.57472c-14.25408-5.49888-31.9488-8.2432-53.10464-8.2432-33.81248 0-61.41952 10.87488-82.7904 32.63488-21.37088 21.76-32.07168 49.72544-32.07168 83.9168 0 32.512 9.5744 58.53184 28.7232 78.04928C154.5216 677.888 180.39808 687.64672 213.01248 687.64672z"/>
    <path d="M342.60992 575.15008c7.82336 0 14.29504-2.21184 19.42528-6.62528 5.12-4.42368 7.68-10.21952 7.68-17.39776 0-6.90176-2.56-12.58496-7.68-17.0496-5.13024-4.47488-11.4176-6.7072-18.87232-6.7072-7.36256 0-13.69088 2.24256-19.00544 6.7072-5.30432 4.47488-7.95648 10.14784-7.95648 17.0496s2.53952 12.61568 7.60832 17.18272C328.88832 572.86656 335.14496 575.15008 342.60992 575.15008z"/>
    <path d="M536.90368 467.41504 496.09728 467.41504 391.29088 719.77984 431.67744 719.77984Z"/>
</svg>
