<svg viewBox="0 0 1024 1024" xmlns="http://www.w3.org/2000/svg" xmlns:xlink="http://www.w3.org/1999/xlink">
    <path d="M993.894738 212.3776l-182.272-182.272C791.552338 10.0352 765.235538 0 738.713938 0c-26.4192 0-52.8384 10.0352-72.9088 30.0032l-23.04 23.04-433.5616 433.664L63.385938 632.5248C52.941138 642.048 46.285138 655.6672 46.285138 670.72L2.355538 957.8496C0.819538 962.56 0.000338 967.5776 0.000338 972.8c-0.1024 28.16 22.8352 51.2 50.9952 51.2h0.2048c5.12 0 10.1376-0.8192 14.9504-2.2528L353.280338 977.8176c15.0528-0.1024 28.672-6.656 38.1952-17.1008l145.8176-145.92 433.5616-433.5616 23.1424-23.04c40.0384-40.1408 40.0384-105.7792-0.1024-145.8176zM501.043538 778.5472L355.225938 924.4672l-1.3312 1.2288-0.7168 0.9216h-3.7888l-3.8912 0.6144L58.368338 971.0592l-3.4816 0.8192-3.6864 1.1264 1.1264-3.584 0.512-3.7888 43.9296-287.1296 0.6144-3.6864v-3.7888l2.1504-2.1504 145.8176-145.92L537.907538 230.4 793.600338 486.0928 501.043538 778.5472z m456.6016-456.6016L934.605138 345.088 829.849938 449.8432 574.157138 194.1504 679.014738 89.3952l23.04-23.04c9.8304-9.728 22.8352-15.0528 36.7616-15.0528s26.9312 5.3248 36.7616 15.0528l182.1696 182.272c20.1728 20.1728 20.1728 53.1456-0.1024 73.3184z"/>
</svg>
